<?xml version="1.0" encoding="UTF-8"?>
<svg id="Camada_2" data-name="Camada 2" xmlns="http://www.w3.org/2000/svg" viewBox="0 0 363.33 390.68">
  <defs>
    <style>
      .cls-1, .cls-2 {
        fill: none;
      }

      .cls-1, .cls-2, .cls-3, .cls-4, .cls-5, .cls-6 {
        stroke: #000;
      }

      .cls-1, .cls-5, .cls-6 {
        stroke-linecap: round;
        stroke-linejoin: round;
      }

      .cls-1, .cls-6 {
        stroke-width: 12px;
      }

      .cls-2, .cls-3, .cls-4 {
        stroke-miterlimit: 10;
      }

      .cls-4 {
        stroke-width: 2px;
      }

      .cls-5 {
        stroke-width: 4px;
      }
    </style>
  </defs>
  <g id="Camada_2-2" data-name="Camada 2">
    <g>
      <g>
        <circle class="cls-4" cx="108.7" cy="164.1" r="14.41" transform="translate(-84.51 201.73) rotate(-67.5)"/>
        <path class="cls-4" d="M165.47,326.83c-.09-.6-.56-3.73-.45-7.93.05-1.95.22-3.09.22-3.09-8.3-2.04-16.61-4.09-24.91-6.13.29,2.08.52,5.27-.13,9-1.53,8.73-6.45,12.06-13.83,23.87-4.03,6.45-6.37,10.2-8.09,16.04-1.83,6.24-4.32,14.72.26,22.04,4.67,7.46,13.57,8.75,14.48,8.87,11.51,1.49,20.38-7.68,21.78-9.13,0,0,15.98-16.52,10.66-53.55Z"/>
        <path class="cls-6" d="M70.29,72.15l-11.65-13.18-37.09,37.25C.88,75.65.81,42.21,21.38,21.55l-7.78-9.83,8.51,9.11C42.75.88,75.64,1.05,96.06,21.38l-37.43,37.59"/>
      </g>
      <path class="cls-1" d="M215.95,222.79c0,11.19-15.15,20.25-33.85,20.25s-33.85-9.07-33.85-20.25"/>
      <path class="cls-5" d="M178.07,211.73h71.14v8.03c0,2.48,2.51,4.16,4.8,3.22l29.27-12.06c2.87-1.18,2.87-5.25,0-6.43l-29.27-12.06c-2.29-.94-4.8.74-4.8,3.22v7.87h-62.92v-105.06h7.87c2.48,0,4.16-2.51,3.22-4.8l-12.06-29.27c-1.18-2.87-5.25-2.87-6.43,0l-12.06,29.27c-.94,2.29.74,4.8,3.22,4.8h8.03v113.28Z"/>
      <g>
        <path class="cls-3" d="M182.1,16.81C99.03,16.81,31.69,84.15,31.69,167.22s67.34,150.41,150.41,150.41,150.41-67.34,150.41-150.41S265.17,16.81,182.1,16.81ZM182.1,301.69c-74.26,0-134.47-60.21-134.47-134.47S107.84,32.75,182.1,32.75s134.47,60.21,134.47,134.47-60.21,134.47-134.47,134.47Z"/>
        <circle class="cls-2" cx="182.1" cy="167.22" r="134.47" transform="translate(-64.91 177.74) rotate(-45)"/>
        <circle class="cls-2" cx="182.1" cy="167.22" r="134.47" transform="translate(-64.91 177.74) rotate(-45)"/>
      </g>
      <g>
        <circle class="cls-4" cx="254.63" cy="164.1" r="14.41" transform="translate(-43.42 109.93) rotate(-22.5)"/>
        <path class="cls-4" d="M197.86,326.83c.09-.6.56-3.73.45-7.93-.05-1.95-.22-3.09-.22-3.09,8.3-2.04,16.61-4.09,24.91-6.13-.29,2.08-.52,5.27.13,9,1.53,8.73,6.45,12.06,13.83,23.87,4.03,6.45,6.37,10.2,8.09,16.04,1.83,6.24,4.32,14.72-.26,22.04-4.67,7.46-13.57,8.75-14.48,8.87-11.51,1.49-20.38-7.68-21.78-9.13,0,0-15.98-16.52-10.66-53.55Z"/>
        <path class="cls-6" d="M293.04,72.15l11.65-13.18,37.09,37.25c20.67-20.58,20.74-54.01.16-74.67l7.78-9.83-8.51,9.11c-20.63-19.94-53.52-19.77-73.94.56l37.43,37.59"/>
      </g>
    </g>
  </g>
</svg>