<svg width="57" height="57" viewBox="0 0 57 57" fill="none" xmlns="http://www.w3.org/2000/svg">
<path fill-rule="evenodd" clip-rule="evenodd" d="M16 12.875C16 9.55979 17.317 6.38037 19.6612 4.03616C22.0054 1.69196 25.1848 0.375 28.5 0.375C31.8152 0.375 34.9946 1.69196 37.3388 4.03616C39.683 6.38037 41 9.55979 41 12.875C41 16.1902 39.683 19.3696 37.3388 21.7138C34.9946 24.058 31.8152 25.375 28.5 25.375C25.1848 25.375 22.0054 24.058 19.6612 21.7138C17.317 19.3696 16 16.1902 16 12.875ZM16 31.625C11.856 31.625 7.88171 33.2712 4.95146 36.2015C2.0212 39.1317 0.375 43.106 0.375 47.25C0.375 49.7364 1.36272 52.121 3.12087 53.8791C4.87903 55.6373 7.2636 56.625 9.75 56.625H47.25C49.7364 56.625 52.121 55.6373 53.8791 53.8791C55.6373 52.121 56.625 49.7364 56.625 47.25C56.625 43.106 54.9788 39.1317 52.0485 36.2015C49.1183 33.2712 45.144 31.625 41 31.625H16Z" fill="white"/>
</svg>
